<?xml version="1.0" standalone="no"?><!DOCTYPE svg PUBLIC "-//W3C//DTD SVG 1.1//EN" "http://www.w3.org/Graphics/SVG/1.1/DTD/svg11.dtd"><svg t="1693903000267" class="icon" viewBox="0 0 1024 1024" version="1.1" xmlns="http://www.w3.org/2000/svg" p-id="6811" xmlns:xlink="http://www.w3.org/1999/xlink" width="200" height="200"><path d="M298.688 170.688h42.688v42.688h-42.688z" p-id="6812"></path><path d="M341.312 170.688H384v42.688h-42.688z" fill="#FFF100" p-id="6813"></path><path d="M384 170.688h42.688v42.688H384zM426.688 170.688h42.688v42.688h-42.688z" fill="#E50046" p-id="6814"></path><path d="M469.312 170.688H512v42.688h-42.688z" fill="#E50046" p-id="6815"></path><path d="M298.688 213.312h42.688V256h-42.688z" p-id="6816"></path><path d="M341.312 213.312H384V256h-42.688zM384 213.312h42.688V256H384zM426.688 213.312h42.688V256h-42.688z" fill="#E50046" p-id="6817"></path><path d="M469.312 213.312H512V256h-42.688z" fill="#E50046" p-id="6818"></path><path d="M256 256h42.688v42.688H256z" p-id="6819"></path><path d="M298.688 256h42.688v42.688h-42.688z" fill="#E50046" p-id="6820"></path><path d="M341.312 256H384v42.688h-42.688zM384 256h42.688v42.688H384z" fill="#E50046" p-id="6821"></path><path d="M426.688 256h42.688v42.688h-42.688z" fill="#FFF100" p-id="6822"></path><path d="M469.312 256H512v42.688h-42.688z" fill="#FFF100" p-id="6823"></path><path d="M256 298.688h42.688v42.688H256z" p-id="6824"></path><path d="M298.688 298.688h42.688v42.688h-42.688z" fill="#E50046" p-id="6825"></path><path d="M341.312 298.688H384v42.688h-42.688zM384 298.688h42.688v42.688H384z" fill="#E50046" p-id="6826"></path><path d="M426.688 298.688h42.688v42.688h-42.688z" fill="#FFF100" p-id="6827"></path><path d="M469.312 298.688H512v42.688h-42.688z" fill="#FFF100" p-id="6828"></path><path d="M512 170.688h42.688v42.688H512z" fill="#E50046" p-id="6829"></path><path d="M512 213.312h42.688V256H512zM512 256h42.688v42.688H512zM512 298.688h42.688v42.688H512z" fill="#FFF100" p-id="6830"></path><path d="M554.688 170.688h42.688v42.688h-42.688z" fill="#E50046" p-id="6831"></path><path d="M554.688 213.312h42.688V256h-42.688zM554.688 256h42.688v42.688h-42.688z" fill="#FFF100" p-id="6832"></path><path d="M554.688 298.688h42.688v42.688h-42.688zM597.312 170.688H640v42.624h-42.688z" fill="#E50046" p-id="6833"></path><path d="M597.312 213.312H640V256h-42.688zM597.312 256H640v42.688h-42.688z" fill="#FFF100" p-id="6834"></path><path d="M597.312 298.688H640v42.688h-42.688z" fill="#E50046" p-id="6835"></path><path d="M640 213.312h42.688V256H640zM640 256h42.688v42.688H640zM682.688 213.312h42.624V256h-42.624z" fill="#FFF100" p-id="6836"></path><path d="M640 170.688h42.688v42.624H640zM682.688 170.688h42.688v42.624h-42.688z" fill="#E50046" p-id="6837"></path><path d="M725.312 170.688H768v42.624h-42.688z" fill="#E50046" p-id="6838"></path><path d="M426.688 42.688h42.688v42.688h-42.688z" p-id="6839"></path><path d="M469.312 42.688H512v42.688h-42.688zM384 85.312h42.688V128H384z" p-id="6840"></path><path d="M426.688 85.312h42.688V128h-42.688z" fill="#FFF100" p-id="6841"></path><path d="M469.312 85.312H512V128h-42.688zM512 42.688h42.688v42.688H512z" fill="#FFF100" p-id="6842"></path><path d="M512 85.312h42.688V128H512zM554.688 42.688h42.688v42.688h-42.688z" fill="#FFF100" p-id="6843"></path><path d="M554.688 85.312h42.688V128h-42.688z" fill="#FFF100" p-id="6844"></path><path d="M597.312 42.688H640v42.688h-42.688z" fill="#FFF100" p-id="6845"></path><path d="M597.312 85.312H640V128h-42.688zM640 42.688h42.688v42.688H640z" fill="#FFF100" p-id="6846"></path><path d="M640 85.312h42.688V128H640zM682.688 42.688h42.688v42.688h-42.688z" fill="#FFF100" p-id="6847"></path><path d="M682.688 85.312h42.688V128h-42.688z" fill="#FFF100" p-id="6848"></path><path d="M725.312 42.688H768v42.688h-42.688z" fill="#FFF100" p-id="6849"></path><path d="M725.312 85.312H768V128h-42.688z" fill="#FFF100" p-id="6850"></path><path d="M768 42.688h42.688v42.688H768z" p-id="6851"></path><path d="M768 85.312h42.688V128H768zM682.688 298.688h42.688v42.688h-42.688zM725.312 256H768v42.688h-42.688z" fill="#FFF100" p-id="6852"></path><path d="M725.312 298.688H768v42.688h-42.688z" fill="#FFF100" p-id="6853"></path><path d="M768 213.312h42.688V256H768zM768 256h42.688v42.688H768zM768 298.688h42.688v42.688H768z" fill="#E50046" p-id="6854"></path><path d="M810.688 170.688h42.688v42.688h-42.688z" fill="#FFF100" p-id="6855"></path><path d="M810.688 213.312h42.688V256h-42.688z" fill="#FFF100" p-id="6856"></path><path d="M810.688 256h42.688v42.688h-42.688zM810.688 298.688h42.688v42.688h-42.688z" fill="#E50046" p-id="6857"></path><path d="M853.312 213.312H896V256h-42.688zM853.312 256H896v42.688h-42.688zM853.312 298.688H896v42.688h-42.688zM896 256h42.688v42.688H896zM896 298.688h42.688v42.688H896z" fill="#FFF100" p-id="6858"></path><path d="M938.624 298.688h42.688v42.688h-42.688z" fill="#E50046" p-id="6859"></path><path d="M682.688 384h42.688v42.688h-42.688zM682.688 426.688h42.688v42.688h-42.688z" fill="#FFF100" p-id="6860"></path><path d="M682.688 469.312h42.688V512h-42.688zM725.312 384H768v42.688h-42.688z" fill="#FFF100" p-id="6861"></path><path d="M725.312 426.688H768v42.688h-42.688z" fill="#FFF100" p-id="6862"></path><path d="M725.312 469.312H768V512h-42.688zM682.688 512h42.688v42.688h-42.688z" fill="#E50046" p-id="6863"></path><path d="M725.312 512H768v42.688h-42.688zM768 384h42.688v42.688H768zM768 426.688h42.688v42.688H768z" fill="#E50046" p-id="6864"></path><path d="M768 469.312h42.688V512H768z" fill="#E50046" p-id="6865"></path><path d="M768 512h42.688v42.688H768z" fill="#FFF100" p-id="6866"></path><path d="M682.688 554.688h42.688v42.688h-42.688z" fill="#E50046" p-id="6867"></path><path d="M682.688 597.312h42.688V640h-42.688z" fill="#FFF100" p-id="6868"></path><path d="M725.312 554.688H768v42.688h-42.688z" fill="#FFF100" p-id="6869"></path><path d="M725.312 597.312H768V640h-42.688zM682.688 640h42.688v42.688h-42.688z" fill="#FFF100" p-id="6870"></path><path d="M725.312 640H768v42.688h-42.688zM768 554.688h42.688v42.688H768z" fill="#FFF100" p-id="6871"></path><path d="M768 597.312h42.688V640H768z" fill="#FFF100" p-id="6872"></path><path d="M768 640h42.688v42.688H768zM682.688 682.688h42.688v42.688h-42.688z" fill="#E50046" p-id="6873"></path><path d="M725.312 682.688H768v42.688h-42.688z" fill="#E50046" p-id="6874"></path><path d="M768 682.688h42.688v42.688H768zM682.688 725.312h42.688V768h-42.688z" p-id="6875"></path><path d="M725.312 725.312H768V768h-42.688z" p-id="6876"></path><path d="M810.688 384h42.688v42.688h-42.688zM810.688 426.688h42.688v42.688h-42.688z" fill="#E50046" p-id="6877"></path><path d="M810.688 469.312h42.688V512h-42.688zM810.688 512h42.688v42.688h-42.688zM810.688 554.688h42.688v42.688h-42.688z" fill="#FFF100" p-id="6878"></path><path d="M810.688 597.312h42.688V640h-42.688z" fill="#FFF100" p-id="6879"></path><path d="M810.688 640h42.688v42.688h-42.688z" fill="#E50046" p-id="6880"></path><path d="M810.688 682.688h42.688v42.688h-42.688z" p-id="6881"></path><path d="M853.312 384H896v42.688h-42.688zM853.312 426.688H896v42.688h-42.688z" fill="#FFF100" p-id="6882"></path><path d="M853.312 469.312H896V512h-42.688zM896 384h42.688v42.688H896zM896 426.688h42.688v42.688H896z" fill="#FFF100" p-id="6883"></path><path d="M896 469.312h42.688V512H896zM853.312 512H896v42.688h-42.688z" fill="#FFF100" p-id="6884"></path><path d="M896 512h42.688v42.688H896zM938.624 384h42.688v42.688h-42.688zM938.688 426.688h42.688v42.688h-42.688z" fill="#E50046" p-id="6885"></path><path d="M938.688 469.312h42.688V512h-42.688z" fill="#E50046" p-id="6886"></path><path d="M938.688 512h42.688v42.688h-42.688z" p-id="6887"></path><path d="M853.312 554.688H896v42.688h-42.688z" fill="#FFF100" p-id="6888"></path><path d="M853.312 597.312H896V640h-42.688zM896 554.688h42.688v42.688H896z" fill="#E50046" p-id="6889"></path><path d="M896 597.312h42.688V640H896zM853.312 640H896v42.688h-42.688zM938.688 554.688h42.688v42.688h-42.688zM256 384h42.688v42.688H256z" p-id="6890"></path><path d="M298.688 384h42.688v42.688h-42.688z" fill="#E50046" p-id="6891"></path><path d="M341.312 384H384v42.688h-42.688z" fill="#E50046" p-id="6892"></path><path d="M384 384h42.688v42.688H384zM426.688 384h42.688v42.688h-42.688z" fill="#FFF100" p-id="6893"></path><path d="M469.312 384H512v42.688h-42.688z" fill="#E50046" p-id="6894"></path><path d="M256 426.688h42.688v42.688H256z" p-id="6895"></path><path d="M298.688 426.688h42.688v42.688h-42.688z" fill="#E50046" p-id="6896"></path><path d="M341.312 426.688H384v42.688h-42.688z" fill="#E50046" p-id="6897"></path><path d="M384 426.688h42.688v42.688H384zM426.688 426.688h42.688v42.688h-42.688z" fill="#FFF100" p-id="6898"></path><path d="M469.312 426.688H512v42.688h-42.688zM298.688 469.312h42.688V512h-42.688z" fill="#E50046" p-id="6899"></path><path d="M384 469.312h42.688V512H384zM426.688 469.312h42.688V512h-42.688z" fill="#FFF100" p-id="6900"></path><path d="M512 384h42.688v42.688H512zM512 426.688h42.688v42.688H512z" fill="#E50046" p-id="6901"></path><path d="M512 469.312h42.688V512H512z" fill="#E50046" p-id="6902"></path><path d="M298.688 512h42.688v42.688h-42.688z" p-id="6903"></path><path d="M384 512h42.688v42.688H384z" fill="#E50046" p-id="6904"></path><path d="M426.688 512h42.688v42.688h-42.688z" fill="#FFF100" p-id="6905"></path><path d="M554.688 384h42.688v42.688h-42.688zM554.688 426.688h42.688v42.688h-42.688z" fill="#E50046" p-id="6906"></path><path d="M597.312 384H640v42.688h-42.688zM597.312 426.688H640v42.688h-42.688z" fill="#E50046" p-id="6907"></path><path d="M597.312 469.312H640V512h-42.688zM554.688 512h42.688v42.688h-42.688z" fill="#E50046" p-id="6908"></path><path d="M597.312 512H640v42.688h-42.688z" fill="#E50046" p-id="6909"></path><path d="M298.688 554.688h42.688v42.688h-42.688z" p-id="6910"></path><path d="M384 554.688h42.688v42.688H384z" fill="#E50046" p-id="6911"></path><path d="M426.688 554.688h42.688v42.688h-42.688z" fill="#FFF100" p-id="6912"></path><path d="M298.688 597.312h42.688V640h-42.688z" p-id="6913"></path><path d="M426.688 597.312h42.688V640h-42.688z" fill="#E50046" p-id="6914"></path><path d="M512 554.688h42.688v42.688H512z" fill="#FFF100" p-id="6915"></path><path d="M512 597.312h42.688V640H512z" fill="#FFF100" p-id="6916"></path><path d="M256 640h42.688v42.688H256z" p-id="6917"></path><path d="M298.688 640h42.688v42.688h-42.688z" fill="#FFFFFF" p-id="6918"></path><path d="M341.312 640H384v42.688h-42.688z" p-id="6919"></path><path d="M384 640h42.688v42.688H384zM426.688 640h42.688v42.688h-42.688z" fill="#E50046" p-id="6920"></path><path d="M469.312 640H512v42.688h-42.688zM512 640h42.688v42.688H512zM597.312 554.688H640v42.688h-42.688z" fill="#E50046" p-id="6921"></path><path d="M597.312 597.312H640V640h-42.688zM554.688 640h42.688v42.688h-42.688z" fill="#FFF100" p-id="6922"></path><path d="M597.312 640H640v42.688h-42.688z" fill="#FFF100" p-id="6923"></path><path d="M213.312 682.688H256v42.688h-42.688z" p-id="6924"></path><path d="M256 682.688h42.688v42.688H256zM298.688 682.688h42.688v42.688h-42.688z" fill="#FFFFFF" p-id="6925"></path><path d="M341.312 682.688H384v42.688h-42.688z" fill="#E3E7E6" p-id="6926"></path><path d="M384 682.688h42.688v42.688H384zM426.688 682.688h42.688v42.688h-42.688z" p-id="6927"></path><path d="M469.312 682.688H512v42.688h-42.688z" p-id="6928"></path><path d="M512 682.688h42.688v42.688H512zM554.688 682.688h42.688v42.688h-42.688z" fill="#E50046" p-id="6929"></path><path d="M597.312 682.688H640v42.688h-42.688z" fill="#E50046" p-id="6930"></path><path d="M170.688 725.312h42.688V768h-42.688zM341.312 725.312H384V768h-42.688zM128 768h42.688v42.688H128zM512 725.312h42.688V768H512zM554.688 725.312h42.688V768h-42.688z" p-id="6931"></path><path d="M213.312 768H256v42.688h-42.688z" fill="#FFFFFF" p-id="6932"></path><path d="M256 768h42.688v42.688H256z" fill="#E3E7E6" p-id="6933"></path><path d="M298.688 768h42.688v42.688h-42.688z" p-id="6934"></path><path d="M170.688 810.688h42.688v42.688h-42.688z" fill="#FFFFFF" p-id="6935"></path><path d="M213.312 810.688H256v42.688h-42.688z" fill="#E3E7E6" p-id="6936"></path><path d="M256 810.688h42.688v42.688H256z" p-id="6937"></path><path d="M85.312 853.312H128V896h-42.688zM128 853.312h42.688V896H128z" fill="#FFFFFF" p-id="6938"></path><path d="M170.688 853.312h42.688V896h-42.688z" fill="#E3E7E6" p-id="6939"></path><path d="M213.312 853.312H256V896h-42.688z" p-id="6940"></path><path d="M42.688 896h42.688v42.688H42.688z" fill="#FFFFFF" p-id="6941"></path><path d="M85.312 896H128v42.688h-42.688z" fill="#FFFFFF" p-id="6942"></path><path d="M128 896h42.688v42.688H128z" fill="#E3E7E6" p-id="6943"></path><path d="M170.688 896h42.688v42.688h-42.688z" p-id="6944"></path><path d="M42.688 938.688h42.688v42.688H42.688z" fill="#E3E7E6" p-id="6945"></path><path d="M85.312 938.688H128v42.688h-42.688z" fill="#E3E7E6" p-id="6946"></path><path d="M128 938.688h42.688v42.688H128zM597.312 725.312H640V768h-42.688zM42.688 853.312h42.688V896H42.688zM341.312 128H384v42.688h-42.688z" p-id="6947"></path><path d="M384 128h42.688v42.688H384z" fill="#FFF100" p-id="6948"></path><path d="M426.688 128h42.688v42.688h-42.688z" fill="#E50046" p-id="6949"></path><path d="M469.312 128H512v42.688h-42.688z" fill="#E50046" p-id="6950"></path><path d="M256 341.312h42.688V384H256z" p-id="6951"></path><path d="M298.688 341.312h42.688V384h-42.688z" fill="#E50046" p-id="6952"></path><path d="M341.312 341.312H384V384h-42.688z" fill="#E50046" p-id="6953"></path><path d="M384 341.312h42.688V384H384zM426.688 341.312h42.688V384h-42.688z" fill="#FFF100" p-id="6954"></path><path d="M469.312 341.312H512V384h-42.688z" fill="#FFF100" p-id="6955"></path><path d="M512 0h42.688v42.688H512z" p-id="6956"></path><path d="M512 128h42.688v42.688H512zM512 341.312h42.688V384H512z" fill="#E50046" p-id="6957"></path><path d="M554.688 0h42.688v42.688h-42.688z" p-id="6958"></path><path d="M554.688 128h42.688v42.688h-42.688zM554.688 341.312h42.688V384h-42.688z" fill="#E50046" p-id="6959"></path><path d="M597.312 0H640v42.688h-42.688z" p-id="6960"></path><path d="M597.312 128H640v42.688h-42.688zM597.312 341.312H640V384h-42.688z" fill="#E50046" p-id="6961"></path><path d="M640 0h42.688v42.688H640z" p-id="6962"></path><path d="M640 128h42.688v42.688H640zM640 298.688h42.688v42.688H640z" fill="#E50046" p-id="6963"></path><path d="M640 341.312h42.688V384H640zM640 384h42.688v42.688H640z" fill="#E50046" p-id="6964"></path><path d="M640 426.688h42.688v42.688H640z" fill="#FFF100" p-id="6965"></path><path d="M640 469.312h42.688V512H640z" fill="#FFF100" p-id="6966"></path><path d="M640 512h42.688v42.688H640zM640 554.688h42.688v42.688H640z" fill="#E50046" p-id="6967"></path><path d="M640 597.312h42.688V640H640zM640 640h42.688v42.688H640z" fill="#FFF100" p-id="6968"></path><path d="M682.688 0h42.688v42.688h-42.688z" p-id="6969"></path><path d="M682.688 128h42.688v42.688h-42.688z" fill="#E50046" p-id="6970"></path><path d="M682.688 256h42.688v42.688h-42.688zM682.688 341.312h42.688V384h-42.688z" fill="#FFF100" p-id="6971"></path><path d="M725.312 0H768v42.688h-42.688z" p-id="6972"></path><path d="M725.312 128H768v42.688h-42.688z" fill="#FFF100" p-id="6973"></path><path d="M725.312 213.312H768V256h-42.688z" fill="#E50046" p-id="6974"></path><path d="M725.312 341.312H768V384h-42.688z" fill="#FFF100" p-id="6975"></path><path d="M853.312 85.312H896V128h-42.688z" p-id="6976"></path><path d="M853.312 128H896v42.688h-42.688z" fill="#E50046" p-id="6977"></path><path d="M896 128h42.688v42.688H896z" p-id="6978"></path><path d="M896 170.688h42.688v42.688H896z" fill="#E50046" p-id="6979"></path><path d="M938.624 170.688h42.688v42.688h-42.688z" p-id="6980"></path><path d="M938.624 213.312h42.688V256h-42.688zM981.312 256H1024v42.688h-42.688z" p-id="6981"></path><path d="M768 128h42.688v42.688H768zM768 170.688h42.688v42.688H768z" fill="#FFF100" p-id="6982"></path><path d="M768 341.312h42.688V384H768zM640 682.688h42.688v42.688H640z" fill="#E50046" p-id="6983"></path><path d="M640 725.312h42.688V768H640zM810.688 42.688h42.688v42.688h-42.688z" p-id="6984"></path><path d="M810.624 85.312h42.688V128h-42.688z" fill="#E50046" p-id="6985"></path><path d="M810.688 128h42.688v42.688h-42.688z" fill="#FFF100" p-id="6986"></path><path d="M810.688 341.312h42.688V384h-42.688z" fill="#E50046" p-id="6987"></path><path d="M853.312 170.688H896v42.688h-42.688zM853.312 341.312H896V384h-42.688zM896 213.312h42.688V256H896zM896 341.312h42.688V384H896z" fill="#FFF100" p-id="6988"></path><path d="M938.624 256h42.688v42.688h-42.688zM938.624 341.312h42.688V384h-42.688z" fill="#E50046" p-id="6989"></path><path d="M981.312 298.688H1024v42.688h-42.688z" p-id="6990"></path><path d="M981.312 341.312H1024V384h-42.688zM981.312 384H1024v42.688h-42.688zM981.312 426.688H1024v42.688h-42.688z" p-id="6991"></path><path d="M981.312 469.312H1024V512h-42.688zM0 896h42.688v42.688H0zM0 938.688h42.688v42.624H0zM42.688 981.312h42.688V1024H42.688z" p-id="6992"></path><path d="M85.312 981.312H128V1024h-42.688zM256 469.312h42.688V512H256z" p-id="6993"></path><path d="M341.312 469.312H384V512h-42.688z" fill="#E50046" p-id="6994"></path><path d="M469.312 469.312H512V512h-42.688z" fill="#FFF100" p-id="6995"></path><path d="M341.312 512H384v42.688h-42.688z" fill="#E50046" p-id="6996"></path><path d="M469.312 512H512v42.688h-42.688z" fill="#FFF100" p-id="6997"></path><path d="M512 512h42.688v42.688H512zM554.688 469.312h42.688V512h-42.688zM341.312 554.688H384v42.688h-42.688z" fill="#E50046" p-id="6998"></path><path d="M469.312 554.688H512v42.688h-42.688z" fill="#FFF100" p-id="6999"></path><path d="M341.312 597.312H384V640h-42.688zM384 597.312h42.688V640H384z" fill="#E50046" p-id="7000"></path><path d="M469.312 597.312H512V640h-42.688zM554.688 554.688h42.688v42.688h-42.688z" fill="#FFF100" p-id="7001"></path><path d="M554.688 597.312h42.688V640h-42.688z" fill="#FFF100" p-id="7002"></path><path d="M213.312 725.312H256V768h-42.688zM256 725.312h42.688V768H256z" fill="#FFFFFF" p-id="7003"></path><path d="M298.688 725.312h42.688V768h-42.688z" fill="#E3E7E6" p-id="7004"></path><path d="M170.688 768h42.688v42.688h-42.688z" fill="#FFFFFF" p-id="7005"></path><path d="M85.312 810.688H128v42.688h-42.688z" p-id="7006"></path><path d="M128 810.688h42.688v42.688H128z" fill="#FFFFFF" p-id="7007"></path></svg>