<?xml version="1.0" standalone="no"?><!DOCTYPE svg PUBLIC "-//W3C//DTD SVG 1.1//EN" "http://www.w3.org/Graphics/SVG/1.1/DTD/svg11.dtd"><svg t="1694056957655" class="icon" viewBox="0 0 1024 1024" version="1.1" xmlns="http://www.w3.org/2000/svg" p-id="22676" xmlns:xlink="http://www.w3.org/1999/xlink" width="200" height="200"><path d="M107.789474 0h808.421052c59.284211 0 107.789474 48.505263 107.789474 107.789474v808.421052c0 59.284211-48.505263 107.789474-107.789474 107.789474H107.789474c-59.284211 0-107.789474-48.505263-107.789474-107.789474V107.789474c0-59.284211 48.505263-107.789474 107.789474-107.789474z" fill="#2F77F1" p-id="22677"></path><path d="M512 808.421053c-164.378947 0-296.421053-132.042105-296.421053-296.421053 0-88.926316 39.073684-172.463158 107.789474-229.052632l1.347368 2.694737c13.473684-6.736842 29.642105-1.347368 36.378948 12.126316s1.347368 29.642105-12.126316 36.378947c-1.347368 0-1.347368 1.347368-2.694737 1.347369-98.357895 90.273684-103.747368 243.873684-12.126316 342.231579s245.221053 103.747368 342.231579 12.126316 103.747368-245.221053 12.126316-343.578948l-12.126316-12.126316c-13.473684-5.389474-20.210526-21.557895-14.821052-35.031579 4.042105-10.778947 13.473684-17.515789 25.6-17.515789 2.694737 0 5.389474 0 9.431579 1.347368l1.347368-4.042105c128 102.4 148.210526 288.336842 45.810526 416.336842C687.157895 768 602.273684 808.421053 512 808.421053z m0-323.368421c-14.821053 0-26.947368-12.126316-26.947368-26.947369V229.052632c0-14.821053 12.126316-26.947368 26.947368-26.947369s26.947368 12.126316 26.947368 26.947369v229.052631c0 14.821053-12.126316 26.947368-26.947368 26.947369z" fill="#AFFCFE" p-id="22678"></path></svg>