<?xml version="1.0" standalone="no"?><!DOCTYPE svg PUBLIC "-//W3C//DTD SVG 1.1//EN" "http://www.w3.org/Graphics/SVG/1.1/DTD/svg11.dtd"><svg t="1694056966767" class="icon" viewBox="0 0 1024 1024" version="1.1" xmlns="http://www.w3.org/2000/svg" p-id="22832" xmlns:xlink="http://www.w3.org/1999/xlink" width="200" height="200"><path d="M751.6 272.4c-14-14-36.6-14-50.5 0L512 461.5 322.9 272.4c-14-14-36.6-14-50.5 0-14 13.9-14 36.6 0 50.5L461.5 512 272.4 701.1c-14 14-14 36.6 0 50.5 7 7 16.1 10.5 25.3 10.5s18.3-3.5 25.3-10.5l189-189.1 189.1 189.1c7 7 16.1 10.5 25.3 10.5s18.3-3.5 25.3-10.5c14-14 14-36.6 0-50.5L562.5 512l189.1-189.1c13.9-13.9 13.9-36.5 0-50.5z" fill="#27D0D8" p-id="22833"></path><path d="M512 0C229.7 0 0 229.7 0 512s229.7 512 512 512 512-229.7 512-512S794.3 0 512 0z m0 952.6C269.1 952.6 71.4 754.9 71.4 512S269.1 71.4 512 71.4 952.6 269.1 952.6 512 754.9 952.6 512 952.6z" fill="#27D0D8" p-id="22834"></path></svg>