<?xml version="1.0" standalone="no"?><!DOCTYPE svg PUBLIC "-//W3C//DTD SVG 1.1//EN" "http://www.w3.org/Graphics/SVG/1.1/DTD/svg11.dtd"><svg t="1694056929027" class="icon" viewBox="0 0 1024 1024" version="1.1" xmlns="http://www.w3.org/2000/svg" p-id="18180" xmlns:xlink="http://www.w3.org/1999/xlink" width="200" height="200"><path d="M485.8 514.2h-273c-28.5 0-42.8 34.4-22.7 54.6l110.3 110.6-138.4 138c-14.3 14.2-14.3 37.3-0.1 51.6 14.2 14.3 37.3 14.3 51.6 0.1l138.4-138 110.3 110.6c20.1 20.2 54.6 6 54.7-22.5l0.8-273c0.1-17.6-14.2-32-31.9-32zM889 90.4l-138.4 138-110.3-110.6c-20.1-20.2-54.6-6-54.7 22.5l-0.8 273c-0.1 17.7 14.3 32.1 32 32.1h273c28.5 0 42.8-34.4 22.7-54.6L802.1 280.2l138.4-138c14.3-14.2 14.3-37.3 0.1-51.6s-37.3-14.4-51.6-0.2z" fill="#31D0C8" p-id="18181"></path></svg>