<?xml version="1.0" standalone="no"?><!DOCTYPE svg PUBLIC "-//W3C//DTD SVG 1.1//EN" "http://www.w3.org/Graphics/SVG/1.1/DTD/svg11.dtd"><svg t="1695030566570" class="icon" viewBox="0 0 1024 1024" version="1.1" xmlns="http://www.w3.org/2000/svg" p-id="2696" xmlns:xlink="http://www.w3.org/1999/xlink" width="200" height="200"><path d="M309.76 121.6zM309.76 121.6zM766.72 441.6C742.4 422.4 714.24 409.6 686.08 401.92c-39.68-10.24-83.2-10.24-122.88 0-10.24 2.56-21.76 1.28-29.44-6.4L336.64 225.28l-2.56-1.28c-12.8-14.08-12.8-33.28 0-47.36l8.96-8.96V166.4l-24.32-24.32h-1.28l-179.2 183.04 24.32 24.32 8.96-8.96v-1.28l1.28-1.28c14.08-11.52 34.56-10.24 46.08 3.84l167.68 194.56c7.68 7.68 11.52 20.48 7.68 30.72-11.52 40.96-11.52 83.2 0 122.88 7.68 29.44 20.48 56.32 39.68 81.92 112.64-110.08 222.72-220.16 332.8-330.24z m-67.84-8.96c10.24 3.84 15.36 15.36 11.52 25.6-3.84 10.24-15.36 15.36-25.6 11.52-16.64-6.4-34.56-10.24-52.48-10.24-16.64-1.28-34.56 0-52.48 5.12-10.24 2.56-21.76-3.84-24.32-14.08-2.56-10.24 3.84-20.48 14.08-24.32 21.76-6.4 43.52-7.68 65.28-6.4 21.76 1.28 43.52 5.12 64 12.8z m-26.88 197.12l261.12 261.12c12.8 12.8 12.8 33.28 0 46.08s-33.28 12.8-46.08 0L624.64 677.12l-167.68 166.4c-12.8 12.8-33.28 12.8-46.08 0-38.4-38.4-64-85.76-76.8-135.68-12.8-44.8-14.08-93.44-3.84-139.52L192 408.32c-8.96 5.12-19.2 6.4-29.44 6.4-15.36 0-33.28-6.4-46.08-17.92L89.6 369.92l-2.56-2.56c-11.52-11.52-16.64-28.16-16.64-42.24 0-16.64 6.4-33.28 19.2-44.8L273.92 96c12.8-12.8 29.44-19.2 46.08-19.2 16.64 0 33.28 6.4 46.08 19.2l1.28 1.28 24.32 25.6c1.28 1.28 2.56 1.28 2.56 2.56 10.24 12.8 16.64 28.16 16.64 42.24 0 10.24-2.56 20.48-7.68 29.44L563.2 334.08c44.8-8.96 93.44-7.68 139.52 3.84 49.92 12.8 97.28 39.68 135.68 78.08 12.8 12.8 12.8 33.28 0 46.08l-166.4 167.68z" fill="#4D4D4D" p-id="2697"></path></svg>